<?xml version="1.0" encoding="UTF-8" standalone="no"?>
<svg width="50px" height="70px" viewBox="0 0 50 70" version="1.1" xmlns="http://www.w3.org/2000/svg" xmlns:xlink="http://www.w3.org/1999/xlink">
    <!-- Generator: Sketch 3.6.1 (26313) - http://www.bohemiancoding.com/sketch -->
    <title>FooCafe</title>
    <desc>Created with Sketch.</desc>
    <defs></defs>
    <g id="Pages" stroke="none" stroke-width="1" fill="none" fill-rule="evenodd">
        <g id="Home:-Picker" transform="translate(-152.000000, -14.000000)">
            <g id="FooCafe" transform="translate(152.000000, 14.000000)">
                <path d="M0.165708812,43.7492329 C0.165708812,43.5250411 0.344827586,43.3234795 0.591187739,43.3234795 L9.86168582,43.3234795 C10.108046,43.3234795 10.2871648,43.5250411 10.2871648,43.7492329 L10.2871648,46.1929041 C10.2871648,46.4170959 10.108046,46.6186575 9.86168582,46.6186575 L3.65900383,46.6186575 L3.65900383,49.8467123 L8.76455939,49.8467123 C8.98850575,49.8467123 9.18984674,50.0484658 9.18984674,50.2726575 L9.18984674,52.716137 C9.18984674,52.9403288 8.98850575,53.1420822 8.76455939,53.1420822 L3.65900383,53.1420822 L3.65900383,58.5894247 C3.65900383,58.8138082 3.45747126,59.0153699 3.23371648,59.0153699 L0.591187739,59.0153699 C0.344827586,59.0153699 0.165708812,58.8138082 0.165708812,58.5894247 L0.165708812,43.7492329" id="Fill-1" fill="#388440"></path>
                <path d="M22.0913793,55.6528767 C24.5545977,55.6528767 26.5701149,53.6351507 26.5701149,51.191863 C26.5701149,48.7259452 24.5545977,46.6859726 22.0913793,46.6859726 C19.6509579,46.6859726 17.6354406,48.7259452 17.6354406,51.191863 C17.6354406,53.6351507 19.6509579,55.6528767 22.0913793,55.6528767 M22.0913793,43.0992877 C26.5701149,43.0992877 30.1528736,46.7082192 30.1528736,51.191863 C30.1528736,55.6753151 26.5701149,59.2395616 22.0913793,59.2395616 C17.6130268,59.2395616 14.0524904,55.6753151 14.0524904,51.191863 C14.0524904,46.7082192 17.6130268,43.0992877 22.0913793,43.0992877" id="Fill-2" fill="#388440"></path>
                <path d="M41.7616858,55.6528767 C44.2249042,55.6528767 46.2402299,53.6351507 46.2402299,51.191863 C46.2402299,48.7259452 44.2249042,46.6859726 41.7616858,46.6859726 C39.3208812,46.6859726 37.3055556,48.7259452 37.3055556,51.191863 C37.3055556,53.6351507 39.3208812,55.6528767 41.7616858,55.6528767 M41.7616858,43.0992877 C46.2402299,43.0992877 49.8229885,46.7082192 49.8229885,51.191863 C49.8229885,55.6753151 46.2402299,59.2395616 41.7616858,59.2395616 C37.2829502,59.2395616 33.7226054,55.6753151 33.7226054,51.191863 C33.7226054,46.7082192 37.2829502,43.0992877 41.7616858,43.0992877" id="Fill-3" fill="#388440"></path>
                <path d="M6.05191571,64.1215342 C6.84118774,64.1215342 7.42509579,64.365863 7.96187739,64.8560548 C8.03314176,64.9191507 8.03314176,65.0138904 7.96992337,65.0769863 L7.35421456,65.7171507 C7.29904215,65.7725753 7.21226054,65.7725753 7.15708812,65.7171507 C6.86494253,65.4567123 6.47816092,65.3146027 6.09137931,65.3146027 C5.19961686,65.3146027 4.54463602,66.0567945 4.54463602,66.9416712 C4.54463602,67.8186849 5.20766284,68.5453425 6.09923372,68.5453425 C6.47030651,68.5453425 6.87279693,68.4110959 7.15708812,68.1665753 C7.21226054,68.1190137 7.31475096,68.1190137 7.36187739,68.1744384 L7.97777778,68.8303288 C8.03314176,68.8853699 8.02528736,68.9879726 7.96992337,69.0433973 C7.43295019,69.5646575 6.7545977,69.8097534 6.05191571,69.8097534 C4.47375479,69.8097534 3.20306513,68.5533973 3.20306513,66.9735068 C3.20306513,65.3932329 4.47375479,64.1215342 6.05191571,64.1215342" id="Fill-4" fill="#1A1918"></path>
                <path d="M18.7128352,67.8347945 L18.1130268,66.5308767 L18.1051724,66.5308767 L17.51341,67.8347945 L18.7128352,67.8347945 L18.7128352,67.8347945 Z M15.4693487,69.5251507 L17.9396552,64.2080274 C17.9632184,64.1608493 18.0183908,64.1215342 18.0735632,64.1215342 L18.1522989,64.1215342 C18.2078544,64.1215342 18.2630268,64.1608493 18.2867816,64.2080274 L20.7568966,69.5251507 C20.8044061,69.6279452 20.7411877,69.7307397 20.6229885,69.7307397 L19.7467433,69.7307397 C19.6047893,69.7307397 19.5415709,69.6833699 19.4704981,69.5333973 L19.18659,68.9091507 L17.0400383,68.9091507 L16.7555556,69.5414521 C16.7162835,69.636 16.6295019,69.7307397 16.4714559,69.7307397 L15.6036398,69.7307397 C15.485249,69.7307397 15.4220307,69.6279452 15.4693487,69.5251507 L15.4693487,69.5251507 Z" id="Fill-5" fill="#1A1918"></path>
                <path d="M28.6668582,64.350137 C28.6668582,64.2715068 28.7300766,64.2003562 28.8164751,64.2003562 L32.0840996,64.2003562 C32.1706897,64.2003562 32.2337165,64.2715068 32.2337165,64.350137 L32.2337165,65.2118082 C32.2337165,65.2908219 32.1706897,65.3617808 32.0840996,65.3617808 L29.8978927,65.3617808 L29.8978927,66.4996164 L31.697318,66.4996164 C31.7760536,66.4996164 31.8467433,66.5701918 31.8467433,66.649589 L31.8467433,67.5106849 C31.8467433,67.5896986 31.7760536,67.6610411 31.697318,67.6610411 L29.8978927,67.6610411 L29.8978927,69.5807671 C29.8978927,69.6597808 29.8264368,69.7307397 29.7477011,69.7307397 L28.8164751,69.7307397 C28.7300766,69.7307397 28.6668582,69.6597808 28.6668582,69.5807671 L28.6668582,64.350137" id="Fill-6" fill="#1A1918"></path>
                <path d="M41.4218391,63.6393973 L41.2563218,63.3078082 C41.2245211,63.2443288 41.2639847,63.1890959 41.3036398,63.1576438 L42.6454023,62.3356712 C42.6923372,62.3040274 42.8109195,62.2881096 42.8505747,62.3594521 L43.1187739,62.8254795 C43.1819923,62.944 43.1342912,63.0228219 43.0718391,63.0625205 L41.635249,63.7101644 C41.5327586,63.7734521 41.4613027,63.7186027 41.4218391,63.6393973 M40.3722222,64.350137 C40.3722222,64.2715068 40.435249,64.2003562 40.5226054,64.2003562 L43.7896552,64.2003562 C43.8764368,64.2003562 43.9396552,64.2715068 43.9396552,64.350137 L43.9396552,65.2118082 C43.9396552,65.2908219 43.8764368,65.3617808 43.7896552,65.3617808 L41.6032567,65.3617808 L41.6032567,66.341589 L43.4028736,66.341589 C43.4818008,66.341589 43.5532567,66.4123562 43.5532567,66.4913699 L43.5532567,67.3528493 C43.5532567,67.439726 43.4818008,67.5030137 43.4028736,67.5030137 L41.6032567,67.5030137 L41.6032567,68.5693151 L43.7896552,68.5693151 C43.8764368,68.5693151 43.9396552,68.640274 43.9396552,68.7196712 L43.9396552,69.5807671 C43.9396552,69.6597808 43.8764368,69.7307397 43.7896552,69.7307397 L40.5226054,69.7307397 C40.435249,69.7307397 40.3722222,69.6597808 40.3722222,69.5807671 L40.3722222,64.350137" id="Fill-7" fill="#1A1918"></path>
                <path d="M26.052682,12.3758082 L26.052682,16.8132329 C26.052682,17.7661918 25.2812261,18.5386849 24.3285441,18.5386849 C23.3770115,18.5386849 22.6051724,17.7661918 22.6051724,16.8132329 L22.6051724,12.3758082 C17.9482759,13.1933699 14.4072797,17.2593151 14.4072797,22.1560548 C14.4072797,27.642137 18.8496169,32.0891507 24.3285441,32.0891507 C29.8090038,32.0891507 34.2505747,27.642137 34.2505747,22.1560548 C34.2505747,17.2593151 30.7101533,13.1931781 26.052682,12.3758082" id="Fill-8" fill="#1A1918"></path>
                <path d="M24.3285441,36.4907123 C16.4210728,36.4907123 10.0105364,30.0727671 10.0105364,22.1560548 C10.0105364,14.8238904 15.510728,8.7820274 22.6051724,7.9289863 L22.6051724,3.57767123 C22.6051724,2.62413699 23.3770115,1.85221918 24.3285441,1.85221918 C25.2812261,1.85221918 26.052682,2.62413699 26.052682,3.57767123 L26.052682,7.9289863 C33.1467433,8.7820274 38.6465517,14.8238904 38.6465517,22.1560548 C38.6465517,30.0727671 32.2360153,36.4907123 24.3285441,36.4907123 M27.7760536,6.47221918 L27.7760536,3.57767123 C27.7760536,1.6750137 26.2296935,0.126767123 24.3285441,0.126767123 C22.4281609,0.126767123 20.8814176,1.6750137 20.8814176,3.57767123 L20.8814176,6.47221918 C13.6032567,8.06476712 8.28716475,14.5552055 8.28716475,22.1560548 L8.28716475,22.2074521 C8.28716475,22.2826301 8.28965517,22.3509041 8.29272031,22.4189863 L8.29310345,22.4249315 C8.43754789,31.1321644 15.6312261,38.2161644 24.3285441,38.2161644 C33.1741379,38.2161644 40.3706897,31.0115342 40.3706897,22.1560548 C40.3706897,14.5552055 35.0545977,8.06476712 27.7760536,6.47221918" id="Fill-9" fill="#388440"></path>
                <path d="M22.8831418,19.2944932 C22.0308429,18.7950959 21.4557471,17.8710959 21.4557471,16.8130411 L21.4557471,13.8567397 C17.9678161,15.0580548 15.556705,18.3551507 15.556705,22.155863 C15.556705,22.8075342 15.6302682,23.442137 15.7655172,24.053726 C17.0829502,24.484274 20.3404215,22.0110685 22.8831418,19.2944932" id="Fill-10" fill="#414140"></path>
            </g>
        </g>
    </g>
</svg>