<!-- Generator: Adobe Illustrator 19.1.0, SVG Export Plug-In  -->
<svg version="1.1"
	 xmlns="http://www.w3.org/2000/svg" xmlns:xlink="http://www.w3.org/1999/xlink" xmlns:a="http://ns.adobe.com/AdobeSVGViewerExtensions/3.0/"
	 x="0px" y="0px" width="225.637px" height="221.99px" viewBox="0 0 225.637 221.99"
	 style="enable-background:new 0 0 225.637 221.99;" xml:space="preserve">
<style type="text/css">
	.st0{fill:#20A4A0;stroke:#20A4A0;stroke-width:2.4783;stroke-miterlimit:10;}
	.st1{fill:#FFFFFF;stroke:#20A4A0;stroke-width:2.8551;stroke-miterlimit:10;}
	.st2{fill:#FFFFFF;stroke:#20A4A0;stroke-width:2.8551;stroke-linejoin:round;stroke-miterlimit:10;}
	.st3{fill:#FFFFFF;stroke:#20A4A0;stroke-width:2.4783;stroke-miterlimit:10;}
	.st4{fill:#FFFFFF;stroke:#20A4A0;stroke-width:2.6014;stroke-miterlimit:10;}
	.st5{fill:#FFFFFF;stroke:#20A4A0;stroke-width:2.8551;stroke-linecap:round;stroke-miterlimit:10;}
	.st6{fill:#FFFFFF;stroke:#20A4A0;stroke-width:2.6689;stroke-linecap:round;stroke-miterlimit:10;}
	.st7{fill:none;stroke:#20A4A0;stroke-width:2.8551;stroke-miterlimit:10;}
	.st8{fill:#FFFFFF;}
	.st9{fill:#20A4A0;}
	.st10{fill:#FFFFFF;stroke:#20A4A0;stroke-width:2.762;stroke-miterlimit:10;}
	.st11{fill:none;stroke:#20A4A0;stroke-width:2.762;stroke-miterlimit:10;}
	.st12{fill:#FFFFFF;stroke:#20A4A0;stroke-width:2.8551;stroke-linecap:round;stroke-linejoin:round;stroke-miterlimit:10;}
</style>
<defs>
</defs>
<g>
	<g>
		<g>
			<circle class="st0" cx="155.428" cy="216.754" r="3.997"/>
			<circle class="st0" cx="140.599" cy="216.041" r="3.997"/>
			<path class="st1" d="M162.4,214.036l-33.901-1.629l0.142-2.952c0.106-2.2,1.975-3.898,4.175-3.792l25.934,1.246
				c2.2,0.106,3.898,1.975,3.792,4.175L162.4,214.036z"/>
			
				<rect x="143.006" y="200.864" transform="matrix(0.9988 0.048 -0.048 0.9988 9.9785 -6.7647)" class="st2" width="5.732" height="7.138"/>
			<circle class="st3" cx="135.466" cy="215.795" r="3.997"/>
			<circle class="st3" cx="150.295" cy="216.507" r="3.997"/>
		</g>
		
			<rect x="65.009" y="189.396" transform="matrix(-0.9988 -0.048 0.048 -0.9988 224.2217 394.2382)" class="st1" width="103.669" height="10.063"/>
		<g>
			<path class="st1" d="M30.845,144.244l6.527-2.087c-7.485-23.412-3.958-45.351,8.576-53.351c3.457-2.207,7.714-3.346,12.65-3.387
				l-0.057-6.851c-6.243,0.051-11.721,1.553-16.28,4.463c-7.454,4.758-12.666,13.507-14.675,24.636
				C25.594,118.696,26.72,131.345,30.845,144.244z"/>
		</g>
		<g>
			<path class="st1" d="M54.988,90.072l0.658-14.696c0.07-1.553,1.385-2.755,2.937-2.685l2.563,0.115
				c1.553,0.07,2.755,1.384,2.685,2.937l-0.658,14.696c-0.07,1.553-1.385,2.755-2.937,2.685l-2.563-0.115
				C56.12,92.939,54.918,91.624,54.988,90.072z"/>
			<path class="st1" d="M59.946,93.157l0.914-20.41c0.08-1.786,1.592-3.168,3.378-3.088l1.719,0.077
				c1.786,0.08,3.168,1.592,3.088,3.378l-0.914,20.41c-0.08,1.786-1.592,3.168-3.378,3.088l-1.719-0.077
				C61.248,96.455,59.866,94.942,59.946,93.157z"/>
		</g>
		<g>
			<g>
				<path class="st1" d="M207.248,152.616l-6.305-2.682c9.621-22.618,8.142-44.789-3.597-53.916
					c-3.238-2.518-7.37-4.047-12.282-4.544l0.691-6.817c6.212,0.629,11.527,2.632,15.797,5.951
					c6.981,5.428,11.36,14.622,12.33,25.889C214.843,127.665,212.549,140.155,207.248,152.616z"/>
			</g>
			<g>
				<path class="st1" d="M188.226,96.44l0.706-14.693c0.075-1.552-1.123-2.871-2.676-2.946l-2.563-0.123
					c-1.552-0.075-2.871,1.123-2.946,2.676l-0.706,14.693c-0.075,1.552,1.123,2.871,2.676,2.946l2.563,0.123
					C186.833,99.191,188.152,97.993,188.226,96.44z"/>
				<path class="st1" d="M183.004,99.053l0.98-20.407c0.086-1.785-1.292-3.302-3.077-3.388l-1.719-0.083
					c-1.785-0.086-3.302,1.292-3.388,3.077l-0.98,20.407c-0.086,1.785,1.292,3.302,3.077,3.388l1.719,0.083
					C181.401,102.216,182.918,100.838,183.004,99.053z"/>
			</g>
			<g>
				
					<rect x="184.235" y="160.476" transform="matrix(0.9608 0.2773 -0.2773 0.9608 54.8279 -48.8468)" class="st4" width="31.762" height="17.896"/>
				<path class="st1" d="M212.136,149.911l-11.795-3.404l1.668-5.78c0.874-3.03,4.04-4.777,7.07-3.903l0.823,0.238
					c3.03,0.874,4.777,4.04,3.903,7.07L212.136,149.911z"/>
				
					<rect x="180.97" y="165.237" transform="matrix(0.9608 0.2773 -0.2773 0.9608 54.8429 -48.8401)" class="st1" width="38.258" height="8.487"/>
				<path class="st1" d="M219.655,170.708l-36.757-10.609l4.487-15.549c0.262-0.909,1.212-1.433,2.121-1.171l33.466,9.659
					c0.909,0.262,1.433,1.212,1.171,2.121L219.655,170.708z"/>
				<line class="st5" x1="189.582" y1="155.288" x2="216.464" y2="163.047"/>
				<line class="st5" x1="191.165" y1="149.802" x2="218.047" y2="157.561"/>
				<circle class="st6" cx="207.745" cy="142.988" r="2.57"/>
			</g>
		</g>
		<g>
			<path class="st7" d="M136.726,45.923l-25.437-1.222c-1.965-0.094-3.635,1.422-3.729,3.387l-0.051,1.068
				c-0.094,1.965,1.422,3.635,3.387,3.729l25.437,1.222c1.965,0.094,3.635-1.422,3.729-3.387l0.051-1.068
				C140.208,47.687,138.691,46.018,136.726,45.923z"/>
			<path class="st1" d="M141.202,51.235l-34.877-1.676c-2.26-0.109-4.18,1.636-4.289,3.896v0c-0.109,2.26,1.636,4.18,3.896,4.289
				l34.877,1.676c2.26,0.109,4.18-1.636,4.289-3.896v0C145.206,53.264,143.462,51.344,141.202,51.235z"/>
		</g>
		<path class="st1" d="M171.902,196.609L61.829,191.32c-0.789-0.038-1.398-0.708-1.36-1.497l6.549-136.309
			c0.038-0.789,0.708-1.398,1.497-1.36l110.072,5.288c0.789,0.038,1.398,0.708,1.36,1.497l-6.549,136.309
			C173.361,196.038,172.691,196.647,171.902,196.609z"/>
		<g>
			<g>
				<g>
					
						<rect x="93.011" y="37.878" transform="matrix(-0.048 0.9988 -0.9988 -0.048 216.6726 -28.2315)" class="st8" width="57.558" height="102.526"/>
					<path class="st9" d="M73.325,59.43l99.556,4.783l-2.625,54.64l-99.556-4.783L73.325,59.43 M70.61,56.441l-2.899,60.344
						l105.26,5.057l2.899-60.344L70.61,56.441L70.61,56.441z"/>
				</g>
				<path class="st1" d="M136.614,88.966l-29.563-1.42c-1.286-0.062-2.279-1.155-2.217-2.441l0,0
					c0.062-1.286,1.155-2.279,2.441-2.217l29.563,1.42c1.286,0.062,2.279,1.155,2.217,2.441l0,0
					C138.993,88.036,137.9,89.028,136.614,88.966z"/>
				<path class="st7" d="M133.485,88.102c-0.17,3.548-3.185,6.286-6.733,6.116l-10.387-0.499c-3.548-0.17-6.286-3.185-6.116-6.733"
					/>
				<g>
					<path class="st9" d="M78.803,65.133l17.576,0.844l-0.283,5.888L78.52,71.021L78.803,65.133 M75.948,61.99l-0.571,11.887
						l23.575,1.133l0.571-11.887L75.948,61.99L75.948,61.99z"/>
				</g>
			</g>
			<g>
				<g>
					
						<rect x="88.756" y="102.099" transform="matrix(-0.048 0.9988 -0.9988 -0.048 277.5864 42.1532)" class="st8" width="59.898" height="102.526"/>
					<path class="st9" d="M70.295,122.483l99.556,4.783l-2.738,56.977l-99.556-4.783L70.295,122.483 M67.581,119.494l-3.011,62.68
						l105.26,5.057l3.011-62.68L67.581,119.494L67.581,119.494z"/>
				</g>
				<path class="st1" d="M133.585,152.019l-29.563-1.42c-1.286-0.062-2.279-1.155-2.217-2.441l0,0
					c0.062-1.286,1.155-2.279,2.441-2.217l29.563,1.42c1.286,0.062,2.279,1.155,2.217,2.441l0,0
					C135.964,151.088,134.871,152.081,133.585,152.019z"/>
				<path class="st7" d="M130.455,151.154c-0.17,3.548-3.185,6.286-6.733,6.116l-10.387-0.499c-3.548-0.17-6.286-3.185-6.116-6.733"
					/>
				<g>
					<path class="st9" d="M75.774,128.186l17.576,0.844l-0.283,5.888l-17.576-0.844L75.774,128.186 M72.919,125.042l-0.571,11.887
						l23.575,1.133l0.571-11.887L72.919,125.042L72.919,125.042z"/>
				</g>
			</g>
		</g>
		<g>
			<path class="st10" d="M75.668,36.39c9.2,4.117,27.532,10.046,48.624,10.242c23.248,0.216,43.108-7.325,52.489-11.698
				c-1.112-8.366-4.854-11.514-5.967-19.881c-14.177,1.598-28.511,2.885-45.828,2.879c-16.655-0.005-32.569-1.081-46.302-2.582
				C78.465,23.917,75.886,27.822,75.668,36.39z"/>
			<path class="st10" d="M90.142,24.343c7.555,2.66,18.945,5.692,33.023,5.88c16.079,0.215,28.934-3.368,36.925-6.285
				c1.543,2.605,3.086,5.21,4.629,7.815c-7.092,3.703-21.896,10.215-41.607,10.033c-17.521-0.162-30.866-5.54-37.901-8.983
				C86.855,29.983,88.498,27.163,90.142,24.343z"/>
			<g>
				<circle class="st1" cx="77.869" cy="23.81" r="12.562"/>
				<g>
					<circle class="st7" cx="77.87" cy="23.926" r="8.338"/>
					<path class="st7" d="M77.108,15.362c-2.148,2.886-2.055,6.767,0.072,9.264c1.702,1.998,6.327,2.38,9.034,1.782"/>
				</g>
			</g>
			<g>
				<circle class="st1" cx="172.654" cy="23.068" r="12.562"/>
				<g>
					<circle class="st7" cx="172.654" cy="23.184" r="8.338"/>
					<path class="st7" d="M171.893,14.621c-2.148,2.886-2.055,6.767,0.072,9.264c1.702,1.998,6.327,2.38,9.034,1.782"/>
				</g>
			</g>
			<path class="st11" d="M91.998,24.471c-1.777,5.75,0.061,10.64,2.373,11.402c2.375,0.783,6.985-2.217,8.786-8.349
				c-1.18,6.788,1.733,11.958,4.38,12.386c2.658,0.429,7.085-3.596,8.055-10.484c-0.702,7.357,4.58,12.545,8.662,12.352
				c3.802-0.179,8.211-5.105,7.76-11.767c0.241,6.38,4.673,10.468,7.789,10.218c3.211-0.258,7.086-5.289,5.903-11.895
				c1.781,6.149,7.133,8.775,9.91,7.631c2.547-1.048,4.333-5.843,2.484-11.012"/>
			<g>
				<circle class="st7" cx="77.333" cy="23.348" r="21.175"/>
				
					<rect x="49.878" y="19.553" transform="matrix(-1 0.0078 -0.0078 -1 106.2191 46.6377)" class="st7" width="6.281" height="7.947"/>
			</g>
			<g>
				<circle class="st7" cx="172.689" cy="22.603" r="21.175"/>
				
					<rect x="193.863" y="18.451" transform="matrix(1 -0.0078 0.0078 1 -0.1693 1.5414)" class="st7" width="6.281" height="7.947"/>
			</g>
		</g>
		<g>
			<path class="st1" d="M87.575,178.289c-2.668,2.778-7.717,6.74-14.503,8.308c-8.955,2.07-11.576-2.167-21.803-2.164
				c-13.936,0.003-27.929,7.82-35.182,18.74c-1.768,2.662-2.81,5.059-3.425,6.612l-11.14-32.399
				c0.615-1.553,1.691-3.962,3.459-6.624c7.253-10.919,21.28-18.748,35.216-18.751c10.227-0.002,12.78,4.257,21.735,2.188
				c6.787-1.568,11.836-5.53,14.503-8.308L87.575,178.289z"/>
			<polyline class="st12" points="6.306,177.25 13.175,197.229 12.312,170.132 18.878,189.23 			"/>
			<polyline class="st12" points="18.286,164.677 25.527,185.736 26.294,159.869 33.567,181.022 35.135,159.241 42.266,179.98 			
				"/>
			<polyline class="st12" points="44.779,159.19 51.092,177.549 53.071,160.477 59.225,178.376 			"/>
			<line class="st12" x1="59.055" y1="160.319" x2="65.925" y2="180.299"/>
			<polyline class="st12" points="65.012,160.083 71.51,178.982 72.093,156.092 78.884,175.843 			"/>
		</g>
		<g>
			<path class="st1" d="M26.228,141.098l12.06-2.297l-1.126-5.91c-0.59-3.098-3.58-5.131-6.678-4.541l-0.841,0.16
				c-3.098,0.59-5.131,3.58-4.541,6.678L26.228,141.098z"/>
			
				<rect x="17.271" y="157.455" transform="matrix(-0.9823 0.1871 -0.1871 -0.9823 102.4125 313.7303)" class="st1" width="38.258" height="8.487"/>
			<path class="st1" d="M16.815,161.109l37.582-7.158l-3.028-15.897c-0.177-0.929-1.074-1.539-2.003-1.362l-34.216,6.517
				c-0.929,0.177-1.539,1.074-1.362,2.003L16.815,161.109z"/>
			<line class="st5" x1="48.187" y1="148.541" x2="20.702" y2="153.776"/>
			<line class="st5" x1="47.119" y1="142.932" x2="19.634" y2="148.167"/>
			<circle class="st6" cx="31.241" cy="134.611" r="2.57"/>
		</g>
		<g>
			<circle class="st0" cx="95.541" cy="213.876" r="3.997"/>
			<circle class="st0" cx="80.712" cy="213.164" r="3.997"/>
			<path class="st1" d="M102.513,211.159l-33.901-1.629l0.142-2.952c0.106-2.2,1.975-3.898,4.175-3.792l25.934,1.246
				c2.2,0.106,3.898,1.975,3.792,4.175L102.513,211.159z"/>
			
				<rect x="83.119" y="197.986" transform="matrix(0.9988 0.048 -0.048 0.9988 9.7715 -3.8941)" class="st2" width="5.732" height="7.138"/>
			<circle class="st3" cx="75.579" cy="212.917" r="3.997"/>
			<circle class="st3" cx="90.408" cy="213.63" r="3.997"/>
		</g>
	</g>
</g>
</svg>